# xmcd CD database file
#
# Track frame offsets:
#	150
#	18266
#	41037
#	58295
#
# Disc length: 1053 seconds
#
# Revision: 1
# Processed by: cddbd v1.4PL0 Copyright (c) Steve Scherf et al.
# Submitted via: CDex 1.40Beta9
#
DISCID=30041b04
DTITLE=21st Base Project - A girl like other ones
DYEAR=1995
DGENRE=Eurodance
TTITLE0=a girl like other ones (radio edit)
TTITLE1=a girl like other ones (extendet mix)
TTITLE2=feel the xtc
TTITLE3=a girl like other ones (happy jungle edit)
EXTD=YEAR: 1995 ID3G: 54
EXTT0=
EXTT1=
EXTT2=
EXTT3=
PLAYORDER=
